<?xml version="1.0" encoding="us-ascii" standalone="no"?><svg xmlns="http://www.w3.org/2000/svg" xmlns:xlink="http://www.w3.org/1999/xlink" contentStyleType="text/css" height="295px" preserveAspectRatio="none" style="width:406px;height:295px;background:#FFFFFF;" version="1.1" viewBox="0 0 406 295" width="406px" zoomAndPan="magnify"><defs/><g><rect fill="#FFFFFF" height="37.3105" style="stroke:#FFFFFF;stroke-width:1.0;" width="10" x="373.5" y="67.7988"/><line style="stroke:#F57F17;stroke-width:1.0;" x1="373.5" x2="373.5" y1="67.7988" y2="105.1094"/><line style="stroke:#F57F17;stroke-width:1.0;" x1="383.5" x2="383.5" y1="67.7988" y2="105.1094"/><line style="stroke:#F57F17;stroke-width:1.0;" x1="373.5" x2="383.5" y1="67.7988" y2="67.7988"/><rect fill="#FFFFFF" height="58.6211" style="stroke:#FFFFFF;stroke-width:1.0;" width="10" x="373.5" y="133.1094"/><line style="stroke:#F57F17;stroke-width:1.0;" x1="373.5" x2="373.5" y1="133.1094" y2="191.7305"/><line style="stroke:#F57F17;stroke-width:1.0;" x1="383.5" x2="383.5" y1="133.1094" y2="191.7305"/><rect fill="#FFFFFF" height="50.6211" style="stroke:#FFFFFF;stroke-width:1.0;" width="10" x="373.5" y="219.7305"/><line style="stroke:#F57F17;stroke-width:1.0;" x1="373.5" x2="373.5" y1="219.7305" y2="270.3516"/><line style="stroke:#F57F17;stroke-width:1.0;" x1="383.5" x2="383.5" y1="219.7305" y2="270.3516"/><line style="stroke:#F57F17;stroke-width:1.0;" x1="373.5" x2="383.5" y1="270.3516" y2="270.3516"/><line style="stroke:#F57F17;stroke-width:0.5;stroke-dasharray:5.0,5.0;" x1="25" x2="25" y1="36.4883" y2="105.1094"/><line style="stroke:#F57F17;stroke-width:1.0;stroke-dasharray:1.0,4.0;" x1="25" x2="25" y1="105.1094" y2="133.1094"/><line style="stroke:#F57F17;stroke-width:0.5;stroke-dasharray:5.0,5.0;" x1="25" x2="25" y1="133.1094" y2="191.7305"/><line style="stroke:#F57F17;stroke-width:1.0;stroke-dasharray:1.0,4.0;" x1="25" x2="25" y1="191.7305" y2="219.7305"/><line style="stroke:#F57F17;stroke-width:0.5;stroke-dasharray:5.0,5.0;" x1="25" x2="25" y1="219.7305" y2="288.3516"/><line style="stroke:#F57F17;stroke-width:0.5;stroke-dasharray:5.0,5.0;" x1="378" x2="378" y1="36.4883" y2="105.1094"/><line style="stroke:#F57F17;stroke-width:1.0;stroke-dasharray:1.0,4.0;" x1="378" x2="378" y1="105.1094" y2="133.1094"/><line style="stroke:#F57F17;stroke-width:0.5;stroke-dasharray:5.0,5.0;" x1="378" x2="378" y1="133.1094" y2="191.7305"/><line style="stroke:#F57F17;stroke-width:1.0;stroke-dasharray:1.0,4.0;" x1="378" x2="378" y1="191.7305" y2="219.7305"/><line style="stroke:#F57F17;stroke-width:0.5;stroke-dasharray:5.0,5.0;" x1="378" x2="378" y1="219.7305" y2="288.3516"/><rect fill="#FFFFFF" height="30.4883" rx="2.5" ry="2.5" style="stroke:#F57F17;stroke-width:0.5;" width="41" x="5" y="5"/><text fill="#000000" font-family="sans-serif" font-size="14" lengthAdjust="spacing" textLength="27" x="12" y="25.5352">CTF</text><rect fill="#FFFFFF" height="30.4883" rx="2.5" ry="2.5" style="stroke:#F57F17;stroke-width:0.5;" width="43" x="357" y="5"/><text fill="#000000" font-family="sans-serif" font-size="14" lengthAdjust="spacing" textLength="29" x="364" y="25.5352">OCS</text><rect fill="#FFFFFF" height="37.3105" style="stroke:#FFFFFF;stroke-width:1.0;" width="10" x="373.5" y="67.7988"/><line style="stroke:#F57F17;stroke-width:1.0;" x1="373.5" x2="373.5" y1="67.7988" y2="105.1094"/><line style="stroke:#F57F17;stroke-width:1.0;" x1="383.5" x2="383.5" y1="67.7988" y2="105.1094"/><line style="stroke:#F57F17;stroke-width:1.0;" x1="373.5" x2="383.5" y1="67.7988" y2="67.7988"/><rect fill="#FFFFFF" height="58.6211" style="stroke:#FFFFFF;stroke-width:1.0;" width="10" x="373.5" y="133.1094"/><line style="stroke:#F57F17;stroke-width:1.0;" x1="373.5" x2="373.5" y1="133.1094" y2="191.7305"/><line style="stroke:#F57F17;stroke-width:1.0;" x1="383.5" x2="383.5" y1="133.1094" y2="191.7305"/><rect fill="#FFFFFF" height="50.6211" style="stroke:#FFFFFF;stroke-width:1.0;" width="10" x="373.5" y="219.7305"/><line style="stroke:#F57F17;stroke-width:1.0;" x1="373.5" x2="373.5" y1="219.7305" y2="270.3516"/><line style="stroke:#F57F17;stroke-width:1.0;" x1="383.5" x2="383.5" y1="219.7305" y2="270.3516"/><line style="stroke:#F57F17;stroke-width:1.0;" x1="373.5" x2="383.5" y1="270.3516" y2="270.3516"/><polygon fill="#181818" points="361.5,63.7988,371.5,67.7988,361.5,71.7988,365.5,67.7988" style="stroke:#181818;stroke-width:1.0;"/><line style="stroke:#181818;stroke-width:1.0;" x1="25.5" x2="367.5" y1="67.7988" y2="67.7988"/><text fill="#000000" font-family="sans-serif" font-size="13" lengthAdjust="spacing" textLength="297" x="32.5" y="63.0566">DIAMETER Credit-Control-Request (CCR) Initial</text><polygon fill="#181818" points="36.5,93.1094,26.5,97.1094,36.5,101.1094,32.5,97.1094" style="stroke:#181818;stroke-width:1.0;"/><line style="stroke:#181818;stroke-width:1.0;" x1="30.5" x2="372.5" y1="97.1094" y2="97.1094"/><text fill="#000000" font-family="sans-serif" font-size="13" lengthAdjust="spacing" textLength="294" x="42.5" y="92.3672">DIAMETER Credit-Control-Answer (CCA) Initial</text><polygon fill="#181818" points="361.5,150.4199,371.5,154.4199,361.5,158.4199,365.5,154.4199" style="stroke:#181818;stroke-width:1.0;"/><line style="stroke:#181818;stroke-width:1.0;" x1="25.5" x2="367.5" y1="154.4199" y2="154.4199"/><text fill="#000000" font-family="sans-serif" font-size="13" lengthAdjust="spacing" textLength="305" x="32.5" y="149.6777">DIAMETER Credit-Control-Request (CCR) Update</text><polygon fill="#181818" points="36.5,179.7305,26.5,183.7305,36.5,187.7305,32.5,183.7305" style="stroke:#181818;stroke-width:1.0;"/><line style="stroke:#181818;stroke-width:1.0;" x1="30.5" x2="372.5" y1="183.7305" y2="183.7305"/><text fill="#000000" font-family="sans-serif" font-size="13" lengthAdjust="spacing" textLength="302" x="42.5" y="178.9883">DIAMETER Credit-Control-Answer (CCA) Update</text><polygon fill="#181818" points="361.5,237.041,371.5,241.041,361.5,245.041,365.5,241.041" style="stroke:#181818;stroke-width:1.0;"/><line style="stroke:#181818;stroke-width:1.0;" x1="25.5" x2="367.5" y1="241.041" y2="241.041"/><text fill="#000000" font-family="sans-serif" font-size="13" lengthAdjust="spacing" textLength="324" x="32.5" y="236.2988">DIAMETER Credit-Control-Request (CCR) Terminate</text><polygon fill="#181818" points="36.5,266.3516,26.5,270.3516,36.5,274.3516,32.5,270.3516" style="stroke:#181818;stroke-width:1.0;"/><line style="stroke:#181818;stroke-width:1.0;" x1="30.5" x2="377.5" y1="270.3516" y2="270.3516"/><text fill="#000000" font-family="sans-serif" font-size="13" lengthAdjust="spacing" textLength="321" x="42.5" y="265.6094">DIAMETER Credit-Control-Answer (CCA) Terminate</text><!--SRC=[dP11IyGm48Nl-HK3NlJGWWTP415gN65XHQdr1yHaiXsscwd9h1N4_-v6nL9O47gTzzxtPYPjAVGccXsarZWUA6p0cowXIgE2htiC5k53FPeePAatGMuuEeoQEuvmuYyM_dmnaOtTRYBlW_kn32q9gZLvN5F0O-4_xMZoK_KZ77Hp1oQ15JyPF-YdF6QRL4iEmJFB2xyhTJ12SPq5k8JRLNM_R9Orw8YEfD0S979NrFdE972gTNq6gq12fbF62hqPmMzgvbmL_t2ga0QC6LEDcB8ivspntBj3zupUt-3CsWRZZiAyvZ7hSFAyBm00]--></g></svg>