<?xml version="1.0" encoding="UTF-8"?>
<svg xmlns="http://www.w3.org/2000/svg" xmlns:xlink="http://www.w3.org/1999/xlink" width="41px" height="40px" viewBox="0 0 40 40" version="1.1">
<g id="surface1">
<path style=" stroke:none;fill-rule:nonzero;fill:rgb(57.647059%,83.529412%,0%);fill-opacity:1;" d="M 9.421875 24.367188 L 2.222656 24.367188 C 2.222656 24.402344 2.222656 24.4375 2.226562 24.472656 C 2.230469 24.542969 2.234375 24.613281 2.238281 24.679688 C 2.238281 24.710938 2.242188 24.742188 2.242188 24.769531 C 2.25 24.847656 2.257812 24.929688 2.261719 25.007812 C 2.265625 25.027344 2.265625 25.042969 2.269531 25.0625 C 2.277344 25.148438 2.285156 25.238281 2.296875 25.328125 C 2.296875 25.335938 2.296875 25.34375 2.296875 25.351562 C 2.308594 25.445312 2.320312 25.542969 2.335938 25.636719 C 2.335938 25.636719 2.335938 25.636719 2.335938 25.640625 C 2.417969 26.226562 2.542969 26.804688 2.707031 27.375 C 2.707031 27.375 2.710938 27.378906 2.710938 27.378906 C 2.734375 27.46875 2.761719 27.558594 2.792969 27.648438 C 2.792969 27.652344 2.796875 27.660156 2.796875 27.664062 C 2.796875 27.667969 2.800781 27.675781 2.800781 27.679688 C 2.828125 27.761719 2.855469 27.839844 2.878906 27.921875 C 2.886719 27.941406 2.894531 27.960938 2.902344 27.980469 C 2.925781 28.050781 2.949219 28.117188 2.976562 28.1875 C 2.988281 28.21875 3 28.25 3.011719 28.28125 C 3.03125 28.339844 3.054688 28.398438 3.074219 28.453125 C 3.09375 28.496094 3.109375 28.539062 3.128906 28.582031 C 3.144531 28.628906 3.164062 28.671875 3.183594 28.714844 C 3.207031 28.769531 3.230469 28.824219 3.253906 28.878906 C 3.265625 28.914062 3.28125 28.945312 3.296875 28.976562 C 3.324219 29.042969 3.355469 29.109375 3.386719 29.171875 C 3.394531 29.195312 3.40625 29.214844 3.414062 29.234375 C 3.449219 29.308594 3.488281 29.382812 3.523438 29.457031 C 3.53125 29.46875 3.535156 29.480469 3.539062 29.492188 C 3.582031 29.574219 3.625 29.65625 3.667969 29.734375 C 3.667969 29.738281 3.671875 29.742188 3.671875 29.746094 C 3.679688 29.761719 3.691406 29.777344 3.699219 29.796875 L 9.847656 26.019531 L 9.871094 26.003906 C 9.628906 25.484375 9.476562 24.929688 9.421875 24.367188 Z M 9.421875 24.367188 "/>
<path style=" stroke:none;fill-rule:nonzero;fill:rgb(30.196078%,35.294118%,19.215686%);fill-opacity:1;" d="M 11.191406 27.738281 L 11.171875 27.753906 L 6.101562 32.925781 C 6.128906 32.949219 6.15625 32.972656 6.179688 32.996094 C 6.230469 33.042969 6.277344 33.085938 6.324219 33.128906 C 6.351562 33.148438 6.375 33.171875 6.398438 33.195312 C 6.457031 33.246094 6.515625 33.292969 6.570312 33.34375 C 6.589844 33.359375 6.601562 33.371094 6.617188 33.382812 C 6.691406 33.445312 6.765625 33.507812 6.84375 33.566406 C 6.914062 33.625 6.988281 33.679688 7.058594 33.738281 C 7.0625 33.738281 7.066406 33.742188 7.066406 33.742188 C 7.375 33.976562 7.691406 34.195312 8.015625 34.398438 C 8.027344 34.40625 8.039062 34.410156 8.050781 34.417969 C 8.113281 34.457031 8.175781 34.492188 8.238281 34.53125 L 8.351562 34.597656 C 8.386719 34.617188 8.425781 34.640625 8.460938 34.660156 C 8.527344 34.695312 8.59375 34.734375 8.660156 34.769531 C 8.667969 34.773438 8.675781 34.777344 8.6875 34.785156 C 8.871094 34.882812 9.058594 34.972656 9.246094 35.0625 L 9.429688 34.617188 L 11.976562 28.300781 L 11.988281 28.277344 C 11.710938 28.125 11.441406 27.945312 11.191406 27.738281 Z M 11.191406 27.738281 "/>
<path style=" stroke:none;fill-rule:nonzero;fill:rgb(41.960784%,64.313725%,22.745098%);fill-opacity:1;" d="M 10.664062 27.222656 C 10.609375 27.160156 10.554688 27.097656 10.503906 27.03125 C 10.460938 26.972656 10.414062 26.917969 10.375 26.859375 C 10.324219 26.792969 10.277344 26.722656 10.230469 26.65625 C 10.1875 26.585938 10.144531 26.515625 10.101562 26.445312 L 3.945312 30.226562 C 4.039062 30.386719 4.136719 30.542969 4.238281 30.695312 C 4.242188 30.703125 4.246094 30.707031 4.25 30.714844 C 4.25 30.714844 4.25 30.714844 4.253906 30.71875 C 4.253906 30.722656 4.257812 30.730469 4.261719 30.734375 C 4.269531 30.75 4.277344 30.761719 4.289062 30.773438 C 4.289062 30.777344 4.289062 30.777344 4.289062 30.777344 C 4.394531 30.9375 4.507812 31.09375 4.621094 31.25 C 4.621094 31.253906 4.625 31.257812 4.625 31.261719 C 4.628906 31.261719 4.632812 31.265625 4.632812 31.269531 C 4.683594 31.335938 4.734375 31.402344 4.785156 31.46875 C 4.789062 31.476562 4.796875 31.484375 4.804688 31.492188 C 4.855469 31.5625 4.910156 31.628906 4.964844 31.695312 C 4.976562 31.710938 4.988281 31.726562 5.003906 31.742188 C 5.050781 31.800781 5.097656 31.863281 5.148438 31.921875 C 5.171875 31.945312 5.191406 31.96875 5.214844 31.996094 C 5.257812 32.042969 5.296875 32.09375 5.339844 32.140625 C 5.363281 32.167969 5.390625 32.195312 5.414062 32.222656 C 5.425781 32.234375 5.433594 32.246094 5.445312 32.257812 C 5.476562 32.292969 5.507812 32.328125 5.542969 32.363281 C 5.554688 32.375 5.566406 32.390625 5.582031 32.402344 C 5.636719 32.460938 5.695312 32.523438 5.75 32.582031 L 10.828125 27.402344 C 10.769531 27.34375 10.714844 27.28125 10.664062 27.222656 Z M 10.664062 27.222656 "/>
<path style=" stroke:none;fill-rule:nonzero;fill:rgb(30.196078%,35.294118%,19.215686%);fill-opacity:1;" d="M 17.394531 27.734375 C 17.339844 27.78125 17.28125 27.824219 17.226562 27.867188 L 17.238281 27.890625 L 20.941406 34.15625 C 21.113281 34.042969 21.28125 33.921875 21.445312 33.800781 C 21.804688 33.53125 22.152344 33.238281 22.484375 32.925781 L 17.414062 27.753906 Z M 17.394531 27.734375 "/>
<path style=" stroke:none;fill-rule:nonzero;fill:rgb(57.647059%,83.529412%,0%);fill-opacity:1;" d="M 20.402344 34.207031 L 20.277344 33.996094 L 16.820312 28.144531 C 16.75 28.1875 16.679688 28.226562 16.605469 28.265625 C 16.535156 28.304688 16.460938 28.34375 16.390625 28.378906 C 15.726562 28.699219 15.007812 28.863281 14.285156 28.863281 C 13.816406 28.863281 13.34375 28.792969 12.886719 28.65625 C 12.808594 28.632812 12.734375 28.601562 12.65625 28.574219 C 12.582031 28.546875 12.503906 28.519531 12.425781 28.488281 L 9.878906 34.800781 L 9.78125 35.046875 L 9.695312 35.257812 C 9.699219 35.261719 9.707031 35.265625 9.714844 35.265625 C 9.71875 35.269531 9.726562 35.273438 9.734375 35.277344 C 9.738281 35.277344 9.738281 35.277344 9.738281 35.277344 C 9.800781 35.304688 9.859375 35.324219 9.921875 35.347656 C 9.996094 35.378906 10.074219 35.410156 10.148438 35.4375 C 10.1875 35.453125 10.226562 35.46875 10.265625 35.484375 C 11.0625 35.769531 11.890625 35.972656 12.730469 36.085938 C 12.761719 36.089844 12.792969 36.09375 12.828125 36.097656 C 12.863281 36.101562 12.898438 36.105469 12.929688 36.109375 C 12.996094 36.117188 13.058594 36.125 13.125 36.128906 L 13.171875 36.132812 C 13.253906 36.140625 13.332031 36.148438 13.410156 36.15625 C 13.4375 36.15625 13.464844 36.160156 13.492188 36.160156 C 13.5625 36.164062 13.632812 36.167969 13.703125 36.171875 C 13.746094 36.175781 13.789062 36.175781 13.832031 36.179688 C 13.886719 36.179688 13.941406 36.183594 13.996094 36.183594 C 14.074219 36.1875 14.15625 36.1875 14.238281 36.1875 C 14.253906 36.1875 14.273438 36.1875 14.292969 36.1875 C 14.964844 36.1875 15.636719 36.132812 16.296875 36.015625 C 16.308594 36.015625 16.320312 36.011719 16.332031 36.011719 C 16.402344 36 16.472656 35.984375 16.542969 35.972656 C 16.582031 35.964844 16.621094 35.957031 16.660156 35.949219 C 16.703125 35.941406 16.746094 35.933594 16.785156 35.921875 C 16.851562 35.910156 16.921875 35.894531 16.992188 35.878906 C 17.003906 35.875 17.015625 35.871094 17.027344 35.867188 C 18.035156 35.628906 19.011719 35.257812 19.925781 34.765625 C 19.984375 34.734375 20.042969 34.699219 20.101562 34.664062 C 20.175781 34.625 20.246094 34.585938 20.316406 34.542969 C 20.363281 34.515625 20.414062 34.488281 20.460938 34.457031 C 20.464844 34.457031 20.464844 34.457031 20.464844 34.457031 C 20.464844 34.457031 20.464844 34.457031 20.46875 34.457031 L 20.457031 34.441406 L 20.46875 34.457031 C 20.46875 34.457031 20.46875 34.453125 20.46875 34.453125 C 20.46875 34.453125 20.46875 34.453125 20.472656 34.453125 C 20.472656 34.453125 20.476562 34.449219 20.480469 34.449219 C 20.496094 34.4375 20.511719 34.429688 20.527344 34.417969 Z M 11.195312 20.007812 C 11.25 19.960938 11.304688 19.917969 11.363281 19.871094 L 11.351562 19.851562 L 7.648438 13.585938 C 7.476562 13.699219 7.304688 13.816406 7.140625 13.941406 C 6.78125 14.210938 6.4375 14.503906 6.101562 14.816406 L 11.171875 19.988281 Z M 11.195312 20.007812 "/>
<path style=" stroke:none;fill-rule:nonzero;fill:rgb(30.196078%,35.294118%,19.215686%);fill-opacity:1;" d="M 5.75 15.160156 C 5.691406 15.21875 5.636719 15.28125 5.582031 15.339844 C 5.527344 15.398438 5.46875 15.457031 5.414062 15.519531 C 5.042969 15.925781 4.699219 16.359375 4.386719 16.816406 C 4.371094 16.835938 4.359375 16.859375 4.34375 16.878906 C 4.308594 16.933594 4.273438 16.984375 4.242188 17.035156 C 4.203125 17.089844 4.167969 17.144531 4.136719 17.199219 C 4.121094 17.21875 4.109375 17.238281 4.097656 17.257812 C 2.929688 19.125 2.304688 21.238281 2.222656 23.375 C 2.21875 23.457031 2.21875 23.539062 2.214844 23.621094 C 2.214844 23.703125 2.210938 23.789062 2.210938 23.871094 L 9.394531 23.871094 C 9.394531 23.789062 9.402344 23.703125 9.40625 23.621094 C 9.410156 23.539062 9.410156 23.457031 9.417969 23.375 C 9.511719 22.421875 9.875 21.488281 10.503906 20.707031 C 10.554688 20.644531 10.609375 20.582031 10.667969 20.523438 C 10.71875 20.460938 10.769531 20.398438 10.828125 20.339844 Z M 20.570312 13.34375 C 20.5625 13.335938 20.550781 13.332031 20.539062 13.324219 C 20.476562 13.285156 20.414062 13.246094 20.351562 13.210938 C 20.3125 13.1875 20.277344 13.167969 20.238281 13.144531 C 20.203125 13.125 20.164062 13.101562 20.125 13.082031 C 20.0625 13.046875 19.996094 13.007812 19.929688 12.972656 C 19.921875 12.96875 19.910156 12.964844 19.902344 12.957031 C 19.480469 12.734375 19.046875 12.535156 18.605469 12.363281 C 18.59375 12.359375 18.582031 12.355469 18.570312 12.351562 C 18.476562 12.3125 18.378906 12.277344 18.28125 12.242188 C 17.496094 11.964844 16.683594 11.765625 15.859375 11.65625 L 15.761719 11.644531 C 15.726562 11.640625 15.691406 11.636719 15.660156 11.632812 C 15.59375 11.625 15.527344 11.617188 15.464844 11.609375 C 15.445312 11.609375 15.425781 11.609375 15.410156 11.605469 C 15.332031 11.597656 15.253906 11.589844 15.175781 11.585938 L 15.085938 11.578125 C 15.019531 11.574219 14.953125 11.570312 14.886719 11.566406 C 14.851562 11.566406 14.816406 11.566406 14.78125 11.5625 L 14.78125 18.902344 C 15.152344 18.941406 15.515625 19.023438 15.871094 19.144531 L 21.171875 13.742188 C 20.972656 13.605469 20.773438 13.46875 20.570312 13.34375 Z M 20.570312 13.34375 "/>
<path style=" stroke:none;fill-rule:nonzero;fill:rgb(41.960784%,64.313725%,22.745098%);fill-opacity:1;" d="M 14.050781 11.558594 C 13.96875 11.558594 13.886719 11.558594 13.808594 11.5625 C 13.300781 11.582031 12.792969 11.636719 12.289062 11.722656 C 12.277344 11.722656 12.265625 11.726562 12.253906 11.726562 C 12.183594 11.742188 12.117188 11.753906 12.046875 11.765625 C 12.003906 11.773438 11.964844 11.78125 11.925781 11.789062 C 11.882812 11.796875 11.84375 11.808594 11.800781 11.816406 C 11.734375 11.832031 11.664062 11.847656 11.597656 11.863281 C 11.585938 11.863281 11.574219 11.867188 11.558594 11.871094 C 10.550781 12.109375 9.578125 12.480469 8.660156 12.972656 C 8.601562 13.003906 8.542969 13.042969 8.484375 13.074219 C 8.414062 13.113281 8.34375 13.15625 8.273438 13.195312 C 8.21875 13.226562 8.167969 13.257812 8.113281 13.289062 C 8.109375 13.289062 8.105469 13.292969 8.101562 13.296875 C 8.089844 13.304688 8.074219 13.3125 8.058594 13.320312 L 8.0625 13.320312 L 8.1875 13.53125 L 11.769531 19.59375 C 11.839844 19.550781 11.910156 19.511719 11.980469 19.472656 C 12.054688 19.433594 12.125 19.398438 12.199219 19.363281 C 12.707031 19.117188 13.25 18.960938 13.808594 18.902344 C 13.886719 18.894531 13.96875 18.886719 14.050781 18.882812 C 14.132812 18.878906 14.210938 18.875 14.292969 18.875 L 14.292969 11.550781 C 14.210938 11.550781 14.132812 11.554688 14.050781 11.558594 Z M 14.050781 11.558594 "/>
<path style=" stroke:none;fill-rule:nonzero;fill:rgb(30.196078%,35.294118%,19.215686%);fill-opacity:1;" d="M 26.363281 23.265625 C 26.359375 23.199219 26.355469 23.132812 26.351562 23.066406 C 26.347656 23.035156 26.347656 23 26.34375 22.96875 C 26.339844 22.890625 26.332031 22.8125 26.324219 22.738281 C 26.324219 22.714844 26.320312 22.695312 26.320312 22.675781 C 26.3125 22.589844 26.304688 22.503906 26.292969 22.417969 C 26.292969 22.410156 26.292969 22.402344 26.289062 22.398438 L 26.289062 22.386719 C 26.277344 22.292969 26.265625 22.199219 26.253906 22.109375 L 26.253906 22.097656 C 26.167969 21.515625 26.046875 20.933594 25.882812 20.367188 C 25.878906 20.363281 25.878906 20.359375 25.878906 20.355469 C 25.851562 20.269531 25.824219 20.179688 25.796875 20.09375 C 25.792969 20.082031 25.789062 20.070312 25.785156 20.058594 C 25.761719 19.980469 25.734375 19.898438 25.707031 19.820312 L 25.6875 19.757812 C 25.664062 19.6875 25.636719 19.621094 25.613281 19.554688 C 25.601562 19.519531 25.589844 19.488281 25.578125 19.457031 C 25.554688 19.398438 25.535156 19.34375 25.511719 19.289062 C 25.496094 19.242188 25.476562 19.199219 25.460938 19.15625 C 25.441406 19.109375 25.421875 19.066406 25.40625 19.023438 C 25.382812 18.96875 25.359375 18.914062 25.332031 18.859375 C 25.320312 18.828125 25.304688 18.796875 25.292969 18.761719 C 25.261719 18.699219 25.230469 18.632812 25.203125 18.566406 C 25.191406 18.546875 25.183594 18.527344 25.171875 18.503906 C 25.136719 18.429688 25.101562 18.355469 25.0625 18.28125 C 25.058594 18.269531 25.054688 18.261719 25.046875 18.25 C 25.007812 18.167969 24.964844 18.085938 24.921875 18.003906 C 24.917969 18 24.917969 17.996094 24.917969 17.996094 C 24.707031 17.605469 24.476562 17.222656 24.230469 16.859375 L 18.929688 22.261719 C 19.050781 22.625 19.128906 22.996094 19.167969 23.375 L 26.367188 23.375 C 26.363281 23.335938 26.363281 23.300781 26.363281 23.265625 Z M 26.363281 23.265625 "/>
<path style=" stroke:none;fill-rule:nonzero;fill:rgb(41.960784%,64.313725%,22.745098%);fill-opacity:1;" d="M 19.195312 23.871094 C 19.195312 23.953125 19.1875 24.035156 19.183594 24.117188 C 19.179688 24.203125 19.175781 24.285156 19.167969 24.367188 C 19.074219 25.320312 18.714844 26.25 18.085938 27.035156 C 18.035156 27.097656 17.976562 27.15625 17.921875 27.21875 C 17.867188 27.28125 17.816406 27.34375 17.757812 27.402344 L 22.835938 32.578125 C 22.894531 32.519531 22.949219 32.460938 23.007812 32.398438 C 23.0625 32.339844 23.121094 32.28125 23.175781 32.222656 C 23.550781 31.804688 23.894531 31.371094 24.203125 30.921875 C 24.214844 30.902344 24.226562 30.886719 24.238281 30.867188 C 24.277344 30.8125 24.3125 30.757812 24.351562 30.699219 C 24.382812 30.648438 24.414062 30.601562 24.445312 30.550781 C 24.460938 30.527344 24.476562 30.5 24.492188 30.476562 C 25.65625 28.613281 26.28125 26.5 26.367188 24.367188 C 26.367188 24.285156 26.371094 24.199219 26.371094 24.117188 C 26.375 24.035156 26.375 23.953125 26.375 23.871094 Z M 19.195312 23.871094 "/>
<path style=" stroke:none;fill-rule:nonzero;fill:rgb(25.882353%,25.490196%,26.27451%);fill-opacity:1;" d="M 28.507812 9.378906 C 27.195312 8.039062 25.066406 8.039062 23.75 9.378906 C 22.703125 10.445312 22.492188 12.042969 23.117188 13.328125 L 15.789062 20.800781 C 14.53125 20.164062 12.964844 20.375 11.914062 21.445312 C 10.601562 22.785156 10.601562 24.957031 11.914062 26.296875 C 13.230469 27.636719 15.359375 27.636719 16.671875 26.296875 C 17.722656 25.226562 17.929688 23.628906 17.308594 22.347656 L 24.636719 14.875 C 25.894531 15.511719 27.460938 15.296875 28.507812 14.230469 C 29.824219 12.890625 29.824219 10.71875 28.507812 9.378906 Z M 28.507812 9.378906 "/>
</g>
</svg>
