<?xml version="1.0" encoding="us-ascii" standalone="no"?><svg xmlns="http://www.w3.org/2000/svg" xmlns:xlink="http://www.w3.org/1999/xlink" contentStyleType="text/css" height="573px" preserveAspectRatio="none" style="width:334px;height:573px;background:#FFFFFF;" version="1.1" viewBox="0 0 334 573" width="334px" zoomAndPan="magnify"><defs/><g><rect fill="#FFFFFF" height="75.2422" style="stroke:#F57F17;stroke-width:1.0;" width="10" x="302" y="67.7988"/><rect fill="#FFFFFF" height="75.2422" style="stroke:#F57F17;stroke-width:1.0;" width="10" x="302" y="202.9727"/><rect fill="#FFFFFF" height="75.2422" style="stroke:#F57F17;stroke-width:1.0;" width="10" x="302" y="338.1465"/><rect fill="#FFFFFF" height="75.2422" style="stroke:#F57F17;stroke-width:1.0;" width="10" x="302" y="473.3203"/><line style="stroke:#F57F17;stroke-width:0.5;stroke-dasharray:5.0,5.0;" x1="24" x2="24" y1="36.4883" y2="566.5625"/><line style="stroke:#F57F17;stroke-width:0.5;stroke-dasharray:5.0,5.0;" x1="306.5" x2="306.5" y1="36.4883" y2="566.5625"/><rect fill="#FFFFFF" height="30.4883" rx="2.5" ry="2.5" style="stroke:#F57F17;stroke-width:0.5;" width="38" x="5" y="5"/><text fill="#000000" font-family="sans-serif" font-size="14" lengthAdjust="spacing" textLength="24" x="12" y="25.5352">BSS</text><rect fill="#FFFFFF" height="30.4883" rx="2.5" ry="2.5" style="stroke:#F57F17;stroke-width:0.5;" width="43" x="285.5" y="5"/><text fill="#000000" font-family="sans-serif" font-size="14" lengthAdjust="spacing" textLength="29" x="292.5" y="25.5352">OCS</text><rect fill="#FFFFFF" height="75.2422" style="stroke:#F57F17;stroke-width:1.0;" width="10" x="302" y="67.7988"/><rect fill="#FFFFFF" height="75.2422" style="stroke:#F57F17;stroke-width:1.0;" width="10" x="302" y="202.9727"/><rect fill="#FFFFFF" height="75.2422" style="stroke:#F57F17;stroke-width:1.0;" width="10" x="302" y="338.1465"/><rect fill="#FFFFFF" height="75.2422" style="stroke:#F57F17;stroke-width:1.0;" width="10" x="302" y="473.3203"/><polygon fill="#181818" points="290,63.7988,300,67.7988,290,71.7988,294,67.7988" style="stroke:#181818;stroke-width:1.0;"/><line style="stroke:#181818;stroke-width:1.0;" x1="24" x2="296" y1="67.7988" y2="67.7988"/><text fill="#000000" font-family="sans-serif" font-size="13" lengthAdjust="spacing" textLength="251" x="31" y="63.0566">GET &lt;CollectionURL&gt;[?&lt;QueryPortion&gt;]</text><polygon fill="#181818" points="35,139.041,25,143.041,35,147.041,31,143.041" style="stroke:#181818;stroke-width:1.0;"/><line style="stroke:#181818;stroke-width:1.0;" x1="29" x2="306" y1="143.041" y2="143.041"/><text fill="#000000" font-family="sans-serif" font-size="13" lengthAdjust="spacing" textLength="46" x="41" y="92.3672">200 OK</text><text fill="#000000" font-family="sans-serif" font-size="13" lengthAdjust="spacing" textLength="204" x="41" y="107.6777">Content-Range: items 1-1000/*</text><text fill="#000000" font-family="sans-serif" font-size="13" lengthAdjust="spacing" textLength="139" x="41" y="122.9883">Accept-Ranges: items</text><text fill="#000000" font-family="sans-serif" font-size="13" lengthAdjust="spacing" textLength="179" x="41" y="138.2988">Etag: 1643855624410-7330</text><polygon fill="#181818" points="290,198.9727,300,202.9727,290,206.9727,294,202.9727" style="stroke:#181818;stroke-width:1.0;"/><line style="stroke:#181818;stroke-width:1.0;" x1="24" x2="296" y1="202.9727" y2="202.9727"/><text fill="#000000" font-family="sans-serif" font-size="13" lengthAdjust="spacing" textLength="251" x="31" y="167.6094">GET &lt;CollectionURL&gt;[?&lt;QueryPortion&gt;]</text><text fill="#000000" font-family="sans-serif" font-size="13" lengthAdjust="spacing" textLength="207" x="31" y="182.9199">If-Match: 1643855624410-7330</text><text fill="#000000" font-family="sans-serif" font-size="13" lengthAdjust="spacing" textLength="163" x="31" y="198.2305">Range: items=1001-2000</text><polygon fill="#181818" points="35,274.2148,25,278.2148,35,282.2148,31,278.2148" style="stroke:#181818;stroke-width:1.0;"/><line style="stroke:#181818;stroke-width:1.0;" x1="29" x2="306" y1="278.2148" y2="278.2148"/><text fill="#000000" font-family="sans-serif" font-size="13" lengthAdjust="spacing" textLength="46" x="41" y="227.541">200 OK</text><text fill="#000000" font-family="sans-serif" font-size="13" lengthAdjust="spacing" textLength="228" x="41" y="242.8516">Content-Range: items 1001-2000/*</text><text fill="#000000" font-family="sans-serif" font-size="13" lengthAdjust="spacing" textLength="139" x="41" y="258.1621">Accept-Ranges: items</text><text fill="#000000" font-family="sans-serif" font-size="13" lengthAdjust="spacing" textLength="179" x="41" y="273.4727">Etag: 1643855624410-7330</text><polygon fill="#181818" points="290,334.1465,300,338.1465,290,342.1465,294,338.1465" style="stroke:#181818;stroke-width:1.0;"/><line style="stroke:#181818;stroke-width:1.0;" x1="24" x2="296" y1="338.1465" y2="338.1465"/><text fill="#000000" font-family="sans-serif" font-size="13" lengthAdjust="spacing" textLength="251" x="31" y="302.7832">GET &lt;CollectionURL&gt;[?&lt;QueryPortion&gt;]</text><text fill="#000000" font-family="sans-serif" font-size="13" lengthAdjust="spacing" textLength="207" x="31" y="318.0938">If-Match: 1643855624410-7330</text><text fill="#000000" font-family="sans-serif" font-size="13" lengthAdjust="spacing" textLength="163" x="31" y="333.4043">Range: items=2001-3000</text><polygon fill="#181818" points="35,409.3887,25,413.3887,35,417.3887,31,413.3887" style="stroke:#181818;stroke-width:1.0;"/><line style="stroke:#181818;stroke-width:1.0;" x1="29" x2="306" y1="413.3887" y2="413.3887"/><text fill="#000000" font-family="sans-serif" font-size="13" lengthAdjust="spacing" textLength="46" x="41" y="362.7148">200 OK</text><text fill="#000000" font-family="sans-serif" font-size="13" lengthAdjust="spacing" textLength="228" x="41" y="378.0254">Content-Range: items 2001-3000/*</text><text fill="#000000" font-family="sans-serif" font-size="13" lengthAdjust="spacing" textLength="139" x="41" y="393.3359">Accept-Ranges: items</text><text fill="#000000" font-family="sans-serif" font-size="13" lengthAdjust="spacing" textLength="179" x="41" y="408.6465">Etag: 1643855624410-7330</text><polygon fill="#181818" points="290,469.3203,300,473.3203,290,477.3203,294,473.3203" style="stroke:#181818;stroke-width:1.0;"/><line style="stroke:#181818;stroke-width:1.0;" x1="24" x2="296" y1="473.3203" y2="473.3203"/><text fill="#000000" font-family="sans-serif" font-size="13" lengthAdjust="spacing" textLength="251" x="31" y="437.957">GET &lt;CollectionURL&gt;[?&lt;QueryPortion&gt;]</text><text fill="#000000" font-family="sans-serif" font-size="13" lengthAdjust="spacing" textLength="207" x="31" y="453.2676">If-Match: 1643855624410-7330</text><text fill="#000000" font-family="sans-serif" font-size="13" lengthAdjust="spacing" textLength="163" x="31" y="468.5781">Range: items=3001-4000</text><polygon fill="#181818" points="35,544.5625,25,548.5625,35,552.5625,31,548.5625" style="stroke:#181818;stroke-width:1.0;"/><line style="stroke:#181818;stroke-width:1.0;" x1="29" x2="306" y1="548.5625" y2="548.5625"/><text fill="#000000" font-family="sans-serif" font-size="13" lengthAdjust="spacing" textLength="46" x="41" y="497.8887">200 OK</text><text fill="#000000" font-family="sans-serif" font-size="13" lengthAdjust="spacing" textLength="254" x="41" y="513.1992">Content-Range: items 3001-3768/3768</text><text fill="#000000" font-family="sans-serif" font-size="13" lengthAdjust="spacing" textLength="139" x="41" y="528.5098">Accept-Ranges: items</text><text fill="#000000" font-family="sans-serif" font-size="13" lengthAdjust="spacing" textLength="179" x="41" y="543.8203">Etag: 1643855624410-7330</text><!--SRC=[pOzFJy905CJl-obUuisaOKlBdn342276Y051JzR3idrjDy3Rkhk8nlZTRH514YxAXSiUPjxyTiRE5EN2Y0NOJCHwfIY5HCmjChjpy6M9914-s4WOfwJA1RckDZ6Qdfvh0sT9hP7uZJrRo5bgz9BYxvDLfXooWKfme0WFXRVUmUGdotTmw4uc82nChTsJXxsrhALbcOeH4gtTLBynLXo2roaDQC5r_m7Q1NkEqYbDZ-D1v-coVRz4ypxIffGwpqmKtgjmk8QLyRQtYLSvX-5jH3rD3ibvOq4fjg0ekR3WUpxdl78UqPMKc6zSkx4ZwZkHji2lXq6pLgjNmz3dNYC8E8jnxyU_Duxe9l7kX9FP8Nv4lsjU52LzhnZ2_xtp1t3oKwjbq-28gLl0oKyDogRX4LFNWA1HRrRAvzYrNm00]--></g></svg>