<?xml version="1.0" encoding="UTF-8" standalone="no"?>
<!DOCTYPE svg PUBLIC "-//W3C//DTD SVG 1.1//EN" "http://www.w3.org/Graphics/SVG/1.1/DTD/svg11.dtd">
<svg xmlns="http://www.w3.org/2000/svg" xmlns:dc="http://purl.org/dc/elements/1.1/" xmlns:xl="http://www.w3.org/1999/xlink" version="1.1" viewBox="329.832 289.557 1184.668 226.33851" width="1184.668" height="226.33851">
  <defs>
    <marker orient="auto" overflow="visible" markerUnits="strokeWidth" id="FilledArrow_Marker" stroke-linejoin="miter" stroke-miterlimit="10" viewBox="-1 -2 5 4" markerWidth="5" markerHeight="4" color="#d6d6d6">
      <g>
        <path d="M 2.24 0 L 0 -.84 L 0 .84 Z" fill="currentColor" stroke="currentColor" stroke-width="1"/>
      </g>
    </marker>
    <marker orient="auto" overflow="visible" markerUnits="strokeWidth" id="FilledArrow_Marker_2" stroke-linejoin="miter" stroke-miterlimit="10" viewBox="-1 -3 7 6" markerWidth="7" markerHeight="6" color="white">
      <g>
        <path d="M 4.8 0 L 0 -1.8 L 0 1.8 Z" fill="currentColor" stroke="currentColor" stroke-width="1"/>
      </g>
    </marker>
  </defs>
  <g id="Pub_Sub_Events" stroke="none" stroke-opacity="1" stroke-dasharray="none" fill="none" fill-opacity="1">
    <title>Pub/Sub Events</title>
    <g id="Pub_Sub_Events_Layer_1">
      <title>Layer 1</title>
      <g id="Line_89">
        <path d="M 1352.1038 356.9987 C 1305.0762 333.2228 1231.9859 305 1150 305 C 1079.056 305 1018.159 326.1326 975.0404 347.2301" marker-end="url(#FilledArrow_Marker)" stroke="#d6d6d6" stroke-linecap="round" stroke-linejoin="round" stroke-width="3"/>
      </g>
      <g id="Line_87">
        <line x1="1013.9692" y1="423.12" x2="1097.5818" y2="423.65403" marker-end="url(#FilledArrow_Marker)" stroke="#d6d6d6" stroke-linecap="round" stroke-linejoin="round" stroke-width="3"/>
      </g>
      <g id="Graphic_85">
        <path d="M 1327.834 393.62736 C 1293.3281 389.25 1307.0882 352.39978 1362.1328 358.6875 C 1367.2397 346.4307 1431.2491 348.42013 1430.8307 358.6875 C 1470.9665 345.5554 1522.2578 371.74054 1487.8544 384.87264 C 1529.1367 391.2394 1487.3334 425.54276 1453.4531 419.8125 C 1450.7417 429.3635 1390.1739 432.7058 1384.8577 419.8125 C 1350.561 433.5819 1279.0471 412.41067 1327.834 393.62736 Z" fill="white"/>
        <path d="M 1327.834 393.62736 C 1293.3281 389.25 1307.0882 352.39978 1362.1328 358.6875 C 1367.2397 346.4307 1431.2491 348.42013 1430.8307 358.6875 C 1470.9665 345.5554 1522.2578 371.74054 1487.8544 384.87264 C 1529.1367 391.2394 1487.3334 425.54276 1453.4531 419.8125 C 1450.7417 429.3635 1390.1739 432.7058 1384.8577 419.8125 C 1350.561 433.5819 1279.0471 412.41067 1327.834 393.62736 Z" stroke="#ffa900" stroke-linecap="round" stroke-linejoin="round" stroke-width="2"/>
        <text transform="translate(1337.025 375.25)" fill="black">
          <tspan font-family="Montserrat" font-size="23" fill="black" x="9.499498" y="22">subscriber</tspan>
        </text>
      </g>
      <g id="Graphic_84">
        <path d="M 1315.834 410.12736 C 1281.3281 405.75 1295.0882 368.89978 1350.1328 375.1875 C 1355.2397 362.9307 1419.2491 364.92013 1418.8307 375.1875 C 1458.9665 362.0554 1510.2578 388.24054 1475.8544 401.37264 C 1517.1367 407.7394 1475.3334 442.04276 1441.4531 436.3125 C 1438.7417 445.8635 1378.1739 449.2058 1372.8577 436.3125 C 1338.561 450.0819 1267.0471 428.91067 1315.834 410.12736 Z" fill="white"/>
        <path d="M 1315.834 410.12736 C 1281.3281 405.75 1295.0882 368.89978 1350.1328 375.1875 C 1355.2397 362.9307 1419.2491 364.92013 1418.8307 375.1875 C 1458.9665 362.0554 1510.2578 388.24054 1475.8544 401.37264 C 1517.1367 407.7394 1475.3334 442.04276 1441.4531 436.3125 C 1438.7417 445.8635 1378.1739 449.2058 1372.8577 436.3125 C 1338.561 450.0819 1267.0471 428.91067 1315.834 410.12736 Z" stroke="#ffa900" stroke-linecap="round" stroke-linejoin="round" stroke-width="2"/>
        <text transform="translate(1325.025 391.75)" fill="black">
          <tspan font-family="Montserrat" font-size="23" fill="black" x="9.499498" y="22">subscriber</tspan>
        </text>
      </g>
      <g id="Graphic_83">
        <ellipse cx="906.75" cy="389.25" rx="136.250217714133" ry="40.7500651145023" fill="#ffa900"/>
        <ellipse cx="906.75" cy="389.25" rx="136.250217714133" ry="40.7500651145023" stroke="white" stroke-linecap="round" stroke-linejoin="round" stroke-width="1"/>
        <text transform="translate(802.75 375.25)" fill="white">
          <tspan font-family="Montserrat" font-size="23" fill="white" x=".615" y="22">ocs_rest_hub_fsm</tspan>
        </text>
      </g>
      <g id="Graphic_82">
        <ellipse cx="892.75" cy="405.75" rx="136.250217714133" ry="40.7500651145023" fill="#ffa900"/>
        <ellipse cx="892.75" cy="405.75" rx="136.250217714133" ry="40.7500651145023" stroke="white" stroke-linecap="round" stroke-linejoin="round" stroke-width="1"/>
        <text transform="translate(788.75 391.75)" fill="white">
          <tspan font-family="Montserrat" font-size="23" fill="white" x=".615" y="22">ocs_rest_hub_fsm</tspan>
        </text>
      </g>
      <g id="Graphic_5">
        <path d="M 330.332 381.5 L 441.332 381.5 L 441.332 446.7 C 408.032 438.55 363.632 471.15 330.332 454.85 Z" fill="white"/>
        <path d="M 330.332 381.5 L 441.332 381.5 L 441.332 446.7 C 408.032 438.55 363.632 471.15 330.332 454.85 Z" stroke="#ffa900" stroke-linecap="round" stroke-linejoin="round" stroke-width="1"/>
        <text transform="translate(335.332 403.675)" fill="black">
          <tspan font-family="Montserrat" font-size="24" fill="black" x="30.352" y="23">ocs</tspan>
        </text>
      </g>
      <g id="Graphic_39">
        <ellipse cx="598.916" cy="422.25" rx="77.5841239716214" ry="40.7500651145023" fill="#ffa900"/>
        <text transform="translate(541.8488 408.25)" fill="white">
          <tspan font-family="Montserrat" font-size="23" fill="white" x=".038699707" y="22">ocs_event</tspan>
        </text>
      </g>
      <g id="Line_40">
        <line x1="441.332" y1="422.25" x2="509.91196" y2="422.25" marker-end="url(#FilledArrow_Marker)" stroke="#d6d6d6" stroke-linecap="round" stroke-linejoin="round" stroke-width="3"/>
      </g>
      <g id="Group_75">
        <g id="Graphic_68">
          <ellipse cx="1177.25" cy="403.5" rx="42.7500683103062" ry="32.0000511328607" fill="#ffa900"/>
          <ellipse cx="1177.25" cy="403.5" rx="42.7500683103062" ry="32.0000511328607" stroke="white" stroke-linecap="round" stroke-linejoin="round" stroke-width="1"/>
          <text transform="translate(1148.05 392.5)" fill="white">
            <tspan font-family="Montserrat" font-size="18" fill="white" x="4.756001" y="17">httpc</tspan>
          </text>
        </g>
        <g id="Graphic_67">
          <ellipse cx="1164.75" cy="413.5" rx="42.7500683103062" ry="32.0000511328607" fill="#ffa900"/>
          <ellipse cx="1164.75" cy="413.5" rx="42.7500683103062" ry="32.0000511328607" stroke="white" stroke-linecap="round" stroke-linejoin="round" stroke-width="1"/>
          <text transform="translate(1135.55 402.5)" fill="white">
            <tspan font-family="Montserrat" font-size="18" fill="white" x="4.756001" y="17">httpc</tspan>
          </text>
        </g>
        <g id="Graphic_66">
          <ellipse cx="1151.75" cy="424" rx="42.7500683103062" ry="32.0000511328608" fill="#ffa900"/>
          <ellipse cx="1151.75" cy="424" rx="42.7500683103062" ry="32.0000511328608" stroke="white" stroke-linecap="round" stroke-linejoin="round" stroke-width="1"/>
          <text transform="translate(1122.55 413)" fill="white">
            <tspan font-family="Montserrat" font-size="18" fill="white" x="4.756001" y="17">httpc</tspan>
          </text>
        </g>
      </g>
      <g id="Line_78">
        <line x1="676.5" y1="422.25" x2="734.7999" y2="422.25" marker-end="url(#FilledArrow_Marker_2)" stroke="white" stroke-linecap="round" stroke-linejoin="round" stroke-width="1"/>
      </g>
      <g id="Graphic_79">
        <ellipse cx="877.75" cy="422.25" rx="136.250217714133" ry="40.7500651145023" fill="#ffa900"/>
        <ellipse cx="877.75" cy="422.25" rx="136.250217714133" ry="40.7500651145023" stroke="white" stroke-linecap="round" stroke-linejoin="round" stroke-width="1"/>
        <text transform="translate(773.75 408.25)" fill="white">
          <tspan font-family="Montserrat" font-size="23" fill="white" x=".615" y="22">ocs_rest_hub_fsm</tspan>
        </text>
      </g>
      <g id="Graphic_80">
        <path d="M 1303.834 426.62736 C 1269.3281 422.25 1283.0882 385.39978 1338.1328 391.6875 C 1343.2397 379.4307 1407.2491 381.42013 1406.8307 391.6875 C 1446.9665 378.5554 1498.2578 404.74054 1463.8544 417.87264 C 1505.1367 424.2394 1463.3334 458.54276 1429.4531 452.8125 C 1426.7417 462.3635 1366.1739 465.7058 1360.8577 452.8125 C 1326.561 466.5819 1255.0471 445.41067 1303.834 426.62736 Z" fill="white"/>
        <path d="M 1303.834 426.62736 C 1269.3281 422.25 1283.0882 385.39978 1338.1328 391.6875 C 1343.2397 379.4307 1407.2491 381.42013 1406.8307 391.6875 C 1446.9665 378.5554 1498.2578 404.74054 1463.8544 417.87264 C 1505.1367 424.2394 1463.3334 458.54276 1429.4531 452.8125 C 1426.7417 462.3635 1366.1739 465.7058 1360.8577 452.8125 C 1326.561 466.5819 1255.0471 445.41067 1303.834 426.62736 Z" stroke="#ffa900" stroke-linecap="round" stroke-linejoin="round" stroke-width="2"/>
        <text transform="translate(1313.025 408.25)" fill="black">
          <tspan font-family="Montserrat" font-size="23" fill="black" x="9.499498" y="22">subscriber</tspan>
        </text>
      </g>
      <g id="Line_86">
        <line x1="676.5" y1="422.25" x2="730.0799" y2="422.25" marker-end="url(#FilledArrow_Marker)" stroke="#d6d6d6" stroke-linecap="round" stroke-linejoin="round" stroke-width="3"/>
      </g>
      <g id="Graphic_90">
        <rect x="1121.5591" y="289.557" width="97.048" height="32" fill="white"/>
        <text transform="translate(1126.5591 294.557)" fill="black">
          <tspan font-family="Montserrat" font-size="18" fill="black" x="0" y="17">subscribe</tspan>
        </text>
      </g>
      <g id="Line_92">
        <path d="M 1168.5655 453.42974 C 1183.9975 474.92745 1210.2302 500.28613 1248 500 C 1278.6643 499.7677 1310.1767 482.6831 1335.01 464.5899" marker-end="url(#FilledArrow_Marker)" stroke="#d6d6d6" stroke-linecap="round" stroke-linejoin="round" stroke-width="3"/>
      </g>
      <g id="Graphic_91">
        <rect x="1212.314" y="483.8955" width="61.696" height="32" fill="white"/>
        <text transform="translate(1217.314 488.8955)" fill="black">
          <tspan font-family="Montserrat" font-size="18" fill="black" x="0" y="17">notify</tspan>
        </text>
      </g>
    </g>
  </g>
</svg>
