<svg xmlns="http://www.w3.org/2000/svg" xmlns:xlink="http://www.w3.org/1999/xlink" viewBox="0 0 116 116">
  <defs>
    <style>
      .cls-1 {
        clip-path: url(#clip-SW_TM-logo-clr);
      }

      .cls-2 {
        fill: #173647;
      }

      .cls-3 {
        fill: #85ea2d;
      }
    </style>
    <clipPath id="clip-SW_TM-logo-clr">
      <rect width="116" height="116"/>
    </clipPath>
  </defs>
  <g id="SW_TM-logo-clr" class="cls-1">
    <g id="SW_Full-CLR" transform="translate(-0.301)">
      <path id="Path_2829" data-name="Path 2829" class="cls-3" d="M50.328,97.669A47.642,47.642,0,1,1,97.971,50.027,47.642,47.642,0,0,1,50.328,97.669Z"/>
      <path id="Path_2830" data-name="Path 2830" class="cls-2" d="M50.328,4.769A45.258,45.258,0,1,1,5.07,50.027,45.258,45.258,0,0,1,50.328,4.769m0-4.769a50.027,50.027,0,1,0,50.027,50.027A50.027,50.027,0,0,0,50.328,0Z"/>
      <path id="Path_2831" data-name="Path 2831" class="cls-2" d="M31.8,33.854c-.154,1.712.058,3.482-.057,5.213a42.665,42.665,0,0,1-.693,5.156,9.53,9.53,0,0,1-4.1,5.829c4.079,2.654,4.54,6.771,4.81,10.946.135,2.25.077,4.52.308,6.752.173,1.731.846,2.174,2.636,2.231.73.02,1.48,0,2.327,0V75.33c-5.29.9-9.657-.6-10.734-5.079a30.76,30.76,0,0,1-.654-5c-.117-1.789.076-3.578-.058-5.367-.386-4.906-1.02-6.56-5.713-6.791v-6.1A9.191,9.191,0,0,1,20.9,46.82c2.577-.135,3.674-.924,4.231-3.463a29.3,29.3,0,0,0,.481-4.329,82.1,82.1,0,0,1,.6-8.406c.673-3.982,3.136-5.906,7.234-6.137,1.154-.057,2.327,0,3.655,0v5.464c-.558.038-1.039.115-1.539.115C32.226,29.949,32.052,31.084,31.8,33.854Zm6.406,12.658h-.077a3.515,3.515,0,1,0-.346,7.021h.231a3.461,3.461,0,0,0,3.655-3.251V50.09a3.523,3.523,0,0,0-3.461-3.578Zm12.062,0a3.373,3.373,0,0,0-3.482,3.251,1.79,1.79,0,0,0,.02.327,3.3,3.3,0,0,0,3.578,3.443,3.263,3.263,0,0,0,3.443-3.558,3.308,3.308,0,0,0-3.557-3.463Zm12.351,0a3.592,3.592,0,0,0-3.655,3.482A3.529,3.529,0,0,0,62.5,53.533h.039c1.769.309,3.559-1.4,3.674-3.462a3.571,3.571,0,0,0-3.6-3.559Zm16.948.288c-2.232-.1-3.348-.846-3.9-2.962a21.447,21.447,0,0,1-.635-4.136c-.154-2.578-.135-5.175-.308-7.753-.4-6.117-4.828-8.252-11.254-7.195v5.31c1.019,0,1.808,0,2.6.019,1.366.019,2.4.539,2.539,2.059.135,1.385.135,2.789.27,4.193.269,2.79.422,5.618.9,8.369A8.715,8.715,0,0,0,73.7,50.052c-3.4,2.289-4.406,5.559-4.578,9.234-.1,2.52-.154,5.059-.289,7.6-.115,2.308-.923,3.058-3.251,3.116-.654.019-1.289.077-2.019.115v5.445c1.365,0,2.616.077,3.866,0,3.886-.231,6.233-2.117,7-5.887A49.079,49.079,0,0,0,75,63.4c.135-1.923.116-3.866.308-5.771.289-2.982,1.655-4.213,4.636-4.4a4.037,4.037,0,0,0,.828-.192v-6.1c-.5-.058-.843-.115-1.208-.135Z"/>
    </g>
  </g>
</svg>
