<svg viewBox="0 0 230 55" xmlns="http://www.w3.org/2000/svg" xmlns:xlink="http://www.w3.org/1999/xlink"><clipPath id="a"><path d="m0 0h230v55h-230z"/></clipPath><g clip-path="url(#a)"><path d="m131.157 53.466a4.127 4.127 0 0 1 -1.611 3.465 6.982 6.982 0 0 1 -4.373 1.244 10.972 10.972 0 0 1 -4.6-.769v-1.892a12.1 12.1 0 0 0 2.256.693 11.855 11.855 0 0 0 2.426.253 4.882 4.882 0 0 0 2.946-.742 2.426 2.426 0 0 0 .991-2.079 2.651 2.651 0 0 0 -.347-1.431 3.261 3.261 0 0 0 -1.175-1.04 16.446 16.446 0 0 0 -2.5-1.071 7.994 7.994 0 0 1 -3.354-1.989 4.394 4.394 0 0 1 -1-3 3.732 3.732 0 0 1 1.462-3.095 6.078 6.078 0 0 1 3.867-1.15 11.4 11.4 0 0 1 4.612.922l-.61 1.7a10.43 10.43 0 0 0 -4.068-.842 3.919 3.919 0 0 0 -2.426.669 2.2 2.2 0 0 0 -.873 1.854 2.834 2.834 0 0 0 .322 1.431 3.032 3.032 0 0 0 1.088 1.04 13.514 13.514 0 0 0 2.343 1.04 9.294 9.294 0 0 1 3.642 2.024 3.982 3.982 0 0 1 .982 2.765z" fill="#fff" transform="translate(-78.858 -15.679)"/><path d="m165 66.38-2.311-7.4q-.218-.693-.818-3.084h-.094q-.461 2.013-.8 3.119l-2.381 7.374h-2.207l-3.449-12.609h2l1.857 7.236a29.263 29.263 0 0 1 .731 3.348h.094q.128-.655.409-1.7t.471-1.66l2.311-7.236h2.087l2.256 7.236a24.378 24.378 0 0 1 .873 3.327h.1a12.141 12.141 0 0 1 .246-1.279q.2-.863 2.4-9.284h1.979l-3.49 12.61z" fill="#fff" transform="translate(-100.011 -24.116)"/><path d="m215.158 65.988-.381-1.788h-.094a5.305 5.305 0 0 1 -1.882 1.6 5.735 5.735 0 0 1 -2.349.412 4.208 4.208 0 0 1 -2.939-.967 3.529 3.529 0 0 1 -1.063-2.745q0-3.812 6.109-4l2.142-.069v-.78a3.21 3.21 0 0 0 -.638-2.194 2.571 2.571 0 0 0 -2.041-.693 8.317 8.317 0 0 0 -3.566.967l-.586-1.462a8.979 8.979 0 0 1 2.045-.807 8.85 8.85 0 0 1 2.228-.288 4.793 4.793 0 0 1 3.341 1 4.193 4.193 0 0 1 1.088 3.209v8.608zm-4.314-1.345a3.877 3.877 0 0 0 2.8-.977 3.614 3.614 0 0 0 1.019-2.738v-1.143l-1.909.08a7.089 7.089 0 0 0 -3.285.693 2.135 2.135 0 0 0 -1 1.951 1.968 1.968 0 0 0 .627 1.577 2.6 2.6 0 0 0 1.75.558z" fill="#fff" transform="translate(-134.978 -23.724)"/><path d="m252.606 53.24v1.209l-2.336.277a4.1 4.1 0 0 1 .828 2.519 3.729 3.729 0 0 1 -1.282 2.956 5.107 5.107 0 0 1 -3.465 1.088 5.78 5.78 0 0 1 -1.057-.094 1.88 1.88 0 0 0 -1.22 1.622.825.825 0 0 0 .426.766 3.119 3.119 0 0 0 1.462.246h2.232a5 5 0 0 1 3.147.863 3 3 0 0 1 1.1 2.509 3.58 3.58 0 0 1 -1.681 3.192 8.992 8.992 0 0 1 -4.9 1.1 6.676 6.676 0 0 1 -3.812-.922 2.97 2.97 0 0 1 -1.341-2.6 2.921 2.921 0 0 1 .738-1.989 3.749 3.749 0 0 1 2.079-1.14 2 2 0 0 1 -.811-.693 1.8 1.8 0 0 1 -.329-1.071 2.031 2.031 0 0 1 .367-1.209 3.874 3.874 0 0 1 1.161-1 3.406 3.406 0 0 1 -1.594-1.386 4.526 4.526 0 0 1 .627-5.4 5.142 5.142 0 0 1 3.521-1.123 6.4 6.4 0 0 1 1.785.229h4.359zm-10.05 14.727a1.712 1.712 0 0 0 .863 1.552 4.761 4.761 0 0 0 2.474.53 6.9 6.9 0 0 0 3.562-.721 2.2 2.2 0 0 0 1.157-1.951 1.519 1.519 0 0 0 -.634-1.421 5.2 5.2 0 0 0 -2.381-.4h-2.287a3.015 3.015 0 0 0 -2.024.62 2.221 2.221 0 0 0 -.749 1.788zm1.04-10.691a2.568 2.568 0 0 0 .749 2 2.987 2.987 0 0 0 2.079.693q2.8 0 2.8-2.717a2.507 2.507 0 0 0 -2.831-2.842 2.8 2.8 0 0 0 -2.079.724 2.861 2.861 0 0 0 -.731 2.138z" fill="#fff" transform="translate(-157.361 -23.586)"/><path d="m290.888 53.272v1.209l-2.336.277a4.1 4.1 0 0 1 .828 2.519 3.729 3.729 0 0 1 -1.265 2.956 5.086 5.086 0 0 1 -3.465 1.105 5.78 5.78 0 0 1 -1.057-.094 1.88 1.88 0 0 0 -1.22 1.622.825.825 0 0 0 .426.766 3.119 3.119 0 0 0 1.462.246h2.232a5 5 0 0 1 3.147.863 3 3 0 0 1 1.1 2.509 3.58 3.58 0 0 1 -1.681 3.192 8.992 8.992 0 0 1 -4.9 1.1 6.676 6.676 0 0 1 -3.812-.922 2.97 2.97 0 0 1 -1.341-2.6 2.921 2.921 0 0 1 .738-1.989 3.749 3.749 0 0 1 2.079-1.14 2 2 0 0 1 -.811-.693 1.8 1.8 0 0 1 -.329-1.071 2.031 2.031 0 0 1 .367-1.209 3.874 3.874 0 0 1 1.161-1 3.406 3.406 0 0 1 -1.594-1.386 4.525 4.525 0 0 1 .627-5.4 5.142 5.142 0 0 1 3.521-1.123 6.4 6.4 0 0 1 1.785.229h4.339zm-10.049 14.728a1.712 1.712 0 0 0 .863 1.552 4.761 4.761 0 0 0 2.474.53 6.9 6.9 0 0 0 3.562-.721 2.2 2.2 0 0 0 1.157-1.951 1.519 1.519 0 0 0 -.634-1.421 5.2 5.2 0 0 0 -2.381-.4h-2.29a3.015 3.015 0 0 0 -2.024.62 2.221 2.221 0 0 0 -.734 1.791zm1.04-10.691a2.568 2.568 0 0 0 .749 2 2.987 2.987 0 0 0 2.079.693q2.8 0 2.8-2.717a2.507 2.507 0 0 0 -2.831-2.842 2.8 2.8 0 0 0 -2.079.724 2.878 2.878 0 0 0 -.724 2.138z" fill="#fff" transform="translate(-182.389 -23.619)"/><path d="m322.236 66.151a5.791 5.791 0 0 1 -4.411-1.7 6.6 6.6 0 0 1 -1.615-4.73 7.344 7.344 0 0 1 1.5-4.851 4.987 4.987 0 0 1 4.034-1.8 4.751 4.751 0 0 1 3.749 1.559 6.006 6.006 0 0 1 1.386 4.113v1.23h-8.691a4.982 4.982 0 0 0 1.123 3.372 3.832 3.832 0 0 0 2.994 1.133 10.157 10.157 0 0 0 4.027-.852v1.7a10.11 10.11 0 0 1 -1.916.627 10.763 10.763 0 0 1 -2.18.199zm-.516-11.47a3.119 3.119 0 0 0 -2.426.991 4.557 4.557 0 0 0 -1.064 2.738h6.584a4.229 4.229 0 0 0 -.8-2.772 2.835 2.835 0 0 0 -2.294-.958z" fill="#fff" transform="translate(-206.702 -23.658)"/><path d="m360.549 53.109a7.476 7.476 0 0 1 1.507.139l-.256 1.771a6.508 6.508 0 0 0 -1.386-.173 3.361 3.361 0 0 0 -2.614 1.244 4.533 4.533 0 0 0 -1.088 3.095v6.764h-1.912v-12.611h1.577l.225 2.336h.094a5.544 5.544 0 0 1 1.681-1.909 3.812 3.812 0 0 1 2.172-.656z" fill="#fff" transform="translate(-231.92 -23.684)"/><path d="m394.98 58.441h-1.954v-7.915h-8.861v7.915h-1.955v-16.821h1.954v7.156h8.861v-7.156h1.954z" fill="#fff" transform="translate(-249.831 -16.177)"/><path d="m431.334 53.77v8.182a3.318 3.318 0 0 0 .693 2.3 2.842 2.842 0 0 0 2.2.759 3.586 3.586 0 0 0 2.894-1.081 5.453 5.453 0 0 0 .915-3.531v-6.629h1.909v12.61h-1.577l-.277-1.691h-.1a3.812 3.812 0 0 1 -1.629 1.428 5.475 5.475 0 0 1 -2.377.5 4.819 4.819 0 0 1 -3.445-1.092 4.651 4.651 0 0 1 -1.144-3.5v-8.255z" fill="#fff" transform="translate(-280.662 -24.116)"/><path d="m475.564 43.584a4.689 4.689 0 0 1 3.86 1.7 7.489 7.489 0 0 1 1.386 4.8 7.476 7.476 0 0 1 -1.386 4.827 4.748 4.748 0 0 1 -3.85 1.733 5.461 5.461 0 0 1 -2.249-.454 4.228 4.228 0 0 1 -1.708-1.386h-.139l-.4 1.622h-1.388v-17.926h1.91v4.332q0 1.462-.094 2.623h.094a4.564 4.564 0 0 1 3.964-1.871zm-.277 1.6a3.326 3.326 0 0 0 -2.817 1.123 6.368 6.368 0 0 0 -.863 3.781 6.349 6.349 0 0 0 .887 3.812 3.334 3.334 0 0 0 2.842 1.144 2.946 2.946 0 0 0 2.623-1.282 6.543 6.543 0 0 0 .849-3.7 6.329 6.329 0 0 0 -.863-3.67 3.052 3.052 0 0 0 -2.654-1.209z" fill="#fff" transform="translate(-306.997 -14.138)"/><path d="m31.425-.06h-31.225v33h33v-33z" fill="#85ea2d" transform="translate(-.2 11.06)"/><path d="m19.625 24.159c-.055.624.021 1.265-.021 1.9a15.473 15.473 0 0 1 -.253 1.875 3.465 3.465 0 0 1 -1.5 2.114c1.483.963 1.649 2.46 1.733 3.978.049.818.028 1.643.111 2.453.062.627.239.79.887.811h.776v1.94c-1.733.329-3.438-.218-3.829-1.844a11.162 11.162 0 0 1 -.2-1.816c-.042-.651-.028-1.3-.076-1.951-.139-1.781-.4-2.384-2.131-2.467v-2.221a3.379 3.379 0 0 0 .444-.062c.936-.049 1.386-.347 1.573-1.258a10.7 10.7 0 0 0 .222-1.58 29.8 29.8 0 0 1 .225-3.053 2.409 2.409 0 0 1 2.55-2.225c.419-.021.9 0 1.251 0v1.986a2.391 2.391 0 0 1 -.478.042c-1.209-.043-1.194.37-1.284 1.378z" fill="#173647" transform="translate(-9.911 -2.494)"/><path d="m33.426 45.209v.069a1.1 1.1 0 0 1 -1.237 1.081h-.083a1.206 1.206 0 0 1 -1.206-1.278 1.251 1.251 0 0 1 1.334-1.147h.028a1.185 1.185 0 0 1 1.168 1.275z" fill="#173647" transform="translate(-20.219 -17.647)"/><path d="m46.4 45.122a1.185 1.185 0 0 1 -1.251 1.293 1.2 1.2 0 0 1 -1.3-1.251.658.658 0 0 1 0-.118 1.227 1.227 0 0 1 1.265-1.182 1.2 1.2 0 0 1 1.286 1.258z" fill="#173647" transform="translate(-28.68 -17.601)"/><path d="m59.26 45.194c-.042.749-.693 1.556-1.334 1.209a1.241 1.241 0 0 1 -1.286-1.237 1.317 1.317 0 0 1 2.62.028z" fill="#173647" transform="translate(-37.043 -17.69)"/><path d="m67.438 28.939v2.214a.461.461 0 0 1 -.256.069 1.521 1.521 0 0 0 -1.66 1.6c-.069.693-.052 1.386-.1 2.1a17.785 17.785 0 0 1 -.2 2.277 2.492 2.492 0 0 1 -2.578 2.138c-.454.028-.745 0-1.438 0v-1.977c.347 0 .534-.035.769-.042.846-.021 1.157-.295 1.2-1.133.049-.922.08-1.844.114-2.772a3.929 3.929 0 0 1 1.66-3.341 3.22 3.22 0 0 1 -1.424-1.944c-.173-1-.229-2.027-.326-3.039-.049-.509-.049-1.019-.1-1.525a.833.833 0 0 0 -.925-.749h-.963v-1.933c2.426-.385 3.961.392 4.11 2.613.062.936.066 1.882.121 2.817a7.811 7.811 0 0 0 .236 1.5 1.252 1.252 0 0 0 1.386 1.078 1.677 1.677 0 0 1 .378.045z" fill="#173647" transform="translate(-40.023 -2.523)"/><g fill="#fff"><path d="m511.591 89.733h-.529v-2.78h-.952v-.453h2.432v.453h-.952v2.78z" transform="translate(-333.41 -47.254)"/><path d="m515.68 89.733-.937-2.7v2.7h-.484v-3.233h.755l.9 2.576.922-2.576h.755v3.233h-.506v-2.7l-.974 2.7h-.469z" transform="translate(-334.425 -47.254)"/><path d="m126.167 5.807s-1.525-.173-2.152-.173c-.915 0-1.386.326-1.386.967 0 .693.392.859 1.663 1.206 1.566.437 2.131.849 2.131 2.121a2.185 2.185 0 0 1 -2.492 2.339 15.85 15.85 0 0 1 -2.426-.295l.128-.967s1.469.2 2.242.2c.925 0 1.348-.412 1.348-1.2 0-.631-.347-.849-1.48-1.119-1.611-.412-2.3-.9-2.3-2.2 0-1.5.991-2.121 2.481-2.121a16.512 16.512 0 0 1 2.36.26z" transform="translate(-79.426 8.034)"/><path d="m144.19 4.94h2.1l1.663 5.818 1.663-5.818h2.11v7.45h-1.22v-6.438h-.062l-1.861 6.134h-1.261l-1.861-6.134h-.061v6.438h-1.21z" transform="translate(-94.292 7.792)"/><path d="m219.89 4.94h5.437v1.06h-2.1v6.39h-1.227v-6.39h-2.12v-1.06z" transform="translate(-143.753 7.792)"/><path d="m245.431 4.94c1.48 0 2.273.554 2.273 1.937a1.635 1.635 0 0 1 -.88 1.674 1.6 1.6 0 0 1 1.067 1.733c0 1.525-.925 2.11-2.37 2.11h-2.921v-7.454h2.828zm-1.622 1.04v2.131h1.6c.738 0 1.067-.371 1.067-1.1s-.371-1.04-1.109-1.04h-1.556zm0 3.153v2.207h1.643c.752 0 1.2-.239 1.2-1.133s-.631-1.078-1.22-1.078h-1.622z" transform="translate(-158.6 7.792)"/><path d="m266.5 4.94h4.7v1.06h-3.486v2.11h2.838v1.04h-2.838v2.187h3.493v1.063h-4.707z" transform="translate(-174.218 7.792)"/><path d="m289.087 4.94h2.4l1.85 7.45h-1.22l-.551-2.187h-2.564l-.551 2.187h-1.201zm.156 4.2h2.079l-.773-3.188h-.549z" transform="translate(-187.777 7.792)"/><path d="m313.786 10.183v2.207h-1.206v-7.45h2.828a2.311 2.311 0 0 1 2.523 2.6 2.528 2.528 0 0 1 -1.22 2.377l1.23 2.481h-1.327l-1.078-2.207h-1.75zm1.622-4.183h-1.622v3.154h1.643c.915 0 1.261-.821 1.261-1.594 0-.867-.413-1.56-1.282-1.56z" transform="translate(-204.33 7.792)"/><path d="m175.367 4.94h2.4l1.85 7.45h-1.217l-.558-2.187h-2.562l-.554 2.187h-1.206zm.159 4.2h2.079l-.773-3.188h-.544z" transform="translate(-113.459 7.792)"/><path d="m200.086 10.183v2.207h-1.206v-7.45h2.814a2.311 2.311 0 0 1 2.523 2.6 2.528 2.528 0 0 1 -1.217 2.373l1.23 2.481h-1.33l-1.078-2.207h-1.75zm1.608-4.183h-1.622v3.154h1.643c.915 0 1.261-.821 1.261-1.594.014-.867-.398-1.56-1.282-1.56z" transform="translate(-130.031 7.792)"/></g></g></svg>