<?xml version="1.0" encoding="us-ascii" standalone="no"?><svg xmlns="http://www.w3.org/2000/svg" xmlns:xlink="http://www.w3.org/1999/xlink" contentStyleType="text/css" height="443px" preserveAspectRatio="none" style="width:876px;height:443px;background:#FFFFFF;" version="1.1" viewBox="0 0 876 443" width="876px" zoomAndPan="magnify"><defs/><g><rect fill="#FFFFFF" height="213.1738" style="stroke:#FFFFFF;stroke-width:1.0;" width="10" x="347" y="67.7988"/><line style="stroke:#F57F17;stroke-width:1.0;" x1="347" x2="347" y1="67.7988" y2="280.9727"/><line style="stroke:#F57F17;stroke-width:1.0;" x1="357" x2="357" y1="67.7988" y2="280.9727"/><line style="stroke:#F57F17;stroke-width:1.0;" x1="347" x2="357" y1="67.7988" y2="67.7988"/><rect fill="#FFFFFF" height="109.2422" style="stroke:#FFFFFF;stroke-width:1.0;" width="10" x="347" y="308.9727"/><line style="stroke:#F57F17;stroke-width:1.0;" x1="347" x2="347" y1="308.9727" y2="418.2148"/><line style="stroke:#F57F17;stroke-width:1.0;" x1="357" x2="357" y1="308.9727" y2="418.2148"/><line style="stroke:#F57F17;stroke-width:1.0;" x1="347" x2="357" y1="418.2148" y2="418.2148"/><rect fill="#FFFFFF" height="29.3105" style="stroke:#F57F17;stroke-width:1.0;" width="10" x="845" y="97.1094"/><rect fill="#FFFFFF" height="29.3105" style="stroke:#F57F17;stroke-width:1.0;" width="10" x="845" y="214.3516"/><rect fill="#FFFFFF" height="29.3105" style="stroke:#F57F17;stroke-width:1.0;" width="10" x="845" y="359.5938"/><line style="stroke:#F57F17;stroke-width:0.5;stroke-dasharray:5.0,5.0;" x1="30" x2="30" y1="36.4883" y2="280.9727"/><line style="stroke:#F57F17;stroke-width:1.0;stroke-dasharray:1.0,4.0;" x1="30" x2="30" y1="280.9727" y2="308.9727"/><line style="stroke:#F57F17;stroke-width:0.5;stroke-dasharray:5.0,5.0;" x1="30" x2="30" y1="308.9727" y2="436.2148"/><line style="stroke:#F57F17;stroke-width:0.5;stroke-dasharray:5.0,5.0;" x1="352" x2="352" y1="36.4883" y2="280.9727"/><line style="stroke:#F57F17;stroke-width:1.0;stroke-dasharray:1.0,4.0;" x1="352" x2="352" y1="280.9727" y2="308.9727"/><line style="stroke:#F57F17;stroke-width:0.5;stroke-dasharray:5.0,5.0;" x1="352" x2="352" y1="308.9727" y2="436.2148"/><line style="stroke:#F57F17;stroke-width:0.5;stroke-dasharray:5.0,5.0;" x1="850" x2="850" y1="36.4883" y2="280.9727"/><line style="stroke:#F57F17;stroke-width:1.0;stroke-dasharray:1.0,4.0;" x1="850" x2="850" y1="280.9727" y2="308.9727"/><line style="stroke:#F57F17;stroke-width:0.5;stroke-dasharray:5.0,5.0;" x1="850" x2="850" y1="308.9727" y2="436.2148"/><rect fill="#FFFFFF" height="30.4883" rx="2.5" ry="2.5" style="stroke:#F57F17;stroke-width:0.5;" width="50" x="5" y="5"/><text fill="#000000" font-family="sans-serif" font-size="14" lengthAdjust="spacing" textLength="36" x="12" y="25.5352">ePDG</text><rect fill="#FFFFFF" height="30.4883" rx="2.5" ry="2.5" style="stroke:#F57F17;stroke-width:0.5;" width="44" x="330" y="5"/><text fill="#000000" font-family="sans-serif" font-size="14" lengthAdjust="spacing" textLength="30" x="337" y="25.5352">AAA</text><rect fill="#FFFFFF" height="30.4883" rx="2.5" ry="2.5" style="stroke:#F57F17;stroke-width:0.5;" width="40" x="830" y="5"/><text fill="#000000" font-family="sans-serif" font-size="14" lengthAdjust="spacing" textLength="26" x="837" y="25.5352">HSS</text><rect fill="#FFFFFF" height="213.1738" style="stroke:#FFFFFF;stroke-width:1.0;" width="10" x="347" y="67.7988"/><line style="stroke:#F57F17;stroke-width:1.0;" x1="347" x2="347" y1="67.7988" y2="280.9727"/><line style="stroke:#F57F17;stroke-width:1.0;" x1="357" x2="357" y1="67.7988" y2="280.9727"/><line style="stroke:#F57F17;stroke-width:1.0;" x1="347" x2="357" y1="67.7988" y2="67.7988"/><rect fill="#FFFFFF" height="109.2422" style="stroke:#FFFFFF;stroke-width:1.0;" width="10" x="347" y="308.9727"/><line style="stroke:#F57F17;stroke-width:1.0;" x1="347" x2="347" y1="308.9727" y2="418.2148"/><line style="stroke:#F57F17;stroke-width:1.0;" x1="357" x2="357" y1="308.9727" y2="418.2148"/><line style="stroke:#F57F17;stroke-width:1.0;" x1="347" x2="357" y1="418.2148" y2="418.2148"/><rect fill="#FFFFFF" height="29.3105" style="stroke:#F57F17;stroke-width:1.0;" width="10" x="845" y="97.1094"/><rect fill="#FFFFFF" height="29.3105" style="stroke:#F57F17;stroke-width:1.0;" width="10" x="845" y="214.3516"/><rect fill="#FFFFFF" height="29.3105" style="stroke:#F57F17;stroke-width:1.0;" width="10" x="845" y="359.5938"/><polygon fill="#181818" points="335,63.7988,345,67.7988,335,71.7988,339,67.7988" style="stroke:#181818;stroke-width:1.0;"/><line style="stroke:#181818;stroke-width:1.0;" x1="30" x2="341" y1="67.7988" y2="67.7988"/><text fill="#000000" font-family="sans-serif" font-size="13" lengthAdjust="spacing" textLength="269" x="37" y="63.0566">DIAMETER EAP-Request (DER) EAP-Identity</text><polygon fill="#181818" points="833,93.1094,843,97.1094,833,101.1094,837,97.1094" style="stroke:#181818;stroke-width:1.0;"/><line style="stroke:#181818;stroke-width:1.0;" x1="357" x2="839" y1="97.1094" y2="97.1094"/><text fill="#000000" font-family="sans-serif" font-size="13" lengthAdjust="spacing" textLength="467" x="364" y="92.3672">DIAMETER Multimedia-Authentication-Request (MAR) Authentication Data</text><polygon fill="#181818" points="368,122.4199,358,126.4199,368,130.4199,364,126.4199" style="stroke:#181818;stroke-width:1.0;"/><line style="stroke:#181818;stroke-width:1.0;" x1="362" x2="849" y1="126.4199" y2="126.4199"/><text fill="#000000" font-family="sans-serif" font-size="13" lengthAdjust="spacing" textLength="464" x="374" y="121.6777">DIAMETER Multimedia-Authentication-Answer (MAA) Authentication Data</text><polygon fill="#181818" points="41,151.7305,31,155.7305,41,159.7305,37,155.7305" style="stroke:#181818;stroke-width:1.0;"/><line style="stroke:#181818;stroke-width:1.0;" x1="35" x2="346" y1="155.7305" y2="155.7305"/><text fill="#000000" font-family="sans-serif" font-size="13" lengthAdjust="spacing" textLength="283" x="47" y="150.9883">DIAMETER EAP-Answer (DEA) AKA-Challenge</text><polygon fill="#181818" points="335,181.041,345,185.041,335,189.041,339,185.041" style="stroke:#181818;stroke-width:1.0;"/><line style="stroke:#181818;stroke-width:1.0;" x1="30" x2="341" y1="185.041" y2="185.041"/><text fill="#000000" font-family="sans-serif" font-size="13" lengthAdjust="spacing" textLength="286" x="37" y="180.2988">DIAMETER EAP-Request (DER) AKA-Challenge</text><polygon fill="#181818" points="833,210.3516,843,214.3516,833,218.3516,837,214.3516" style="stroke:#181818;stroke-width:1.0;"/><line style="stroke:#181818;stroke-width:1.0;" x1="357" x2="839" y1="214.3516" y2="214.3516"/><text fill="#000000" font-family="sans-serif" font-size="13" lengthAdjust="spacing" textLength="363" x="364" y="209.6094">DIAMETER Server-Assignment-Request (SAR) Registration</text><polygon fill="#181818" points="368,239.6621,358,243.6621,368,247.6621,364,243.6621" style="stroke:#181818;stroke-width:1.0;"/><line style="stroke:#181818;stroke-width:1.0;" x1="362" x2="849" y1="243.6621" y2="243.6621"/><text fill="#000000" font-family="sans-serif" font-size="13" lengthAdjust="spacing" textLength="360" x="374" y="238.9199">DIAMETER Server-Assignment-Answer (SAA) Registration</text><polygon fill="#181818" points="41,268.9727,31,272.9727,41,276.9727,37,272.9727" style="stroke:#181818;stroke-width:1.0;"/><line style="stroke:#181818;stroke-width:1.0;" x1="35" x2="346" y1="272.9727" y2="272.9727"/><text fill="#000000" font-family="sans-serif" font-size="13" lengthAdjust="spacing" textLength="183" x="47" y="268.2305">DIAMETER EAP-Answer (DEA)</text><polygon fill="#181818" points="335,326.2832,345,330.2832,335,334.2832,339,330.2832" style="stroke:#181818;stroke-width:1.0;"/><line style="stroke:#181818;stroke-width:1.0;" x1="30" x2="341" y1="330.2832" y2="330.2832"/><text fill="#000000" font-family="sans-serif" font-size="13" lengthAdjust="spacing" textLength="293" x="37" y="325.541">DIAMETER Session-Termination-Request (STR)</text><polygon fill="#181818" points="833,355.5938,843,359.5938,833,363.5938,837,359.5938" style="stroke:#181818;stroke-width:1.0;"/><line style="stroke:#181818;stroke-width:1.0;" x1="357" x2="839" y1="359.5938" y2="359.5938"/><text fill="#000000" font-family="sans-serif" font-size="13" lengthAdjust="spacing" textLength="377" x="364" y="354.8516">DIAMETER Server-Assignment-Request (SAR) Deregistration</text><polygon fill="#181818" points="368,384.9043,358,388.9043,368,392.9043,364,388.9043" style="stroke:#181818;stroke-width:1.0;"/><line style="stroke:#181818;stroke-width:1.0;" x1="362" x2="849" y1="388.9043" y2="388.9043"/><text fill="#000000" font-family="sans-serif" font-size="13" lengthAdjust="spacing" textLength="374" x="374" y="384.1621">DIAMETER Server-Assignment-Answer (SAA) Deregistration</text><polygon fill="#181818" points="41,414.2148,31,418.2148,41,422.2148,37,418.2148" style="stroke:#181818;stroke-width:1.0;"/><line style="stroke:#181818;stroke-width:1.0;" x1="35" x2="351" y1="418.2148" y2="418.2148"/><text fill="#000000" font-family="sans-serif" font-size="13" lengthAdjust="spacing" textLength="290" x="47" y="413.4727">DIAMETER Session-Termination-Answer (STA)</text><!--SRC=[hPFHIiCm58RlynG1Rzn51rx8G4I8Qz7X1gFj2noRqpQiJMgIRehuxYQJhUkiK8Qtv-J_JiuNOZP2Dg2XfgO4hdP25ZI7oY0nNGVVMfGPqa-o1cr59XgGzb5fZdgkAgNfLNuxoszclJPacqAhLlAV8xjIM2HBaUDII1mA7tk3oI_IT72Aw_29Wg7OyABNO8pvEW3qoiz9uikbCQGK76ckb7rLxuHu00qUV83UqN31Lb4QnJHYwo3sQnjBhyCedkmh2uxI2lj18BDY2nRtStpK4HpxbB1gAojgv082rjhI1pEmGicEksAEss_I42nqU7zVZxyFnkEPD3lKdiw6wHnx_Bq1Ds30m04LHXxrme9v2LM5ii3ntlgnOLS9wYtgW1aZ2bcx-tQCn3kAiH36wlqEO-JyvXqsIRoK7kuo6sGwdVxb844trpr4YheMykpDapIUN6WXHFs_7iw0uqmCRNUafevwol7Vuni0]--></g></svg>